<?xml version="1.0" ?><svg viewBox="0 0 48 48" xmlns="http://www.w3.org/2000/svg"><title/><g data-name="4-Shopping Bag" id="_4-Shopping_Bag"><path d="M39,8H34V3a3,3,0,0,0-3-3H17a3,3,0,0,0-3,3V8H9a3,3,0,0,0-3,3V45a3,3,0,0,0,3,3H39a3,3,0,0,0,3-3V11A3,3,0,0,0,39,8ZM16,3a1,1,0,0,1,1-1H31a1,1,0,0,1,1,1V8H16ZM40,45a1,1,0,0,1-1,1H9a1,1,0,0,1-1-1V11a1,1,0,0,1,1-1h5v4H13a1,1,0,0,0-1,1v3h2V16h2v2h2V15a1,1,0,0,0-1-1H16V10H32v4H31a1,1,0,0,0-1,1v3h2V16h2v2h2V15a1,1,0,0,0-1-1H34V10h5a1,1,0,0,1,1,1Z"/></g></svg>